<svg xmlns="http://www.w3.org/2000/svg" xmlns:xlink="http://www.w3.org/1999/xlink" version="1.1" x="0px" y="0px" viewBox="0 0 100 125" enable-background="new 0 0 100 100" xml:space="preserve"><g><g><path d="M58.55,79.875c-0.028-0.016-0.685-0.396-1.747-1.146l1.153-1.634c0.979,0.691,1.586,1.043,1.592,1.047L58.55,79.875z"/></g><g><path d="M53.458,76.104c-1.065-0.921-2.104-1.903-3.086-2.92l1.438-1.39c0.941,0.974,1.936,1.915,2.956,2.797L53.458,76.104z     M47.562,69.996c-0.895-1.114-1.736-2.272-2.501-3.441l1.673-1.096c0.73,1.115,1.534,2.221,2.388,3.285L47.562,69.996z     M42.909,62.879c-0.655-1.265-1.247-2.571-1.759-3.883l1.863-0.727c0.486,1.246,1.049,2.487,1.671,3.688L42.909,62.879z     M39.818,54.945c-0.367-1.364-0.663-2.769-0.88-4.173l1.977-0.306c0.206,1.333,0.487,2.665,0.835,3.959L39.818,54.945z     M38.515,46.532c-0.029-0.636-0.045-1.281-0.045-1.935c0-0.762,0.021-1.536,0.063-2.322l1.997,0.109    c-0.041,0.75-0.061,1.487-0.061,2.213c0,0.623,0.015,1.237,0.043,1.842L38.515,46.532z M40.943,38.342l-1.979-0.295    c0.205-1.371,0.476-2.772,0.808-4.165l1.945,0.463C41.4,35.682,41.139,37.027,40.943,38.342z M42.816,30.415l-1.904-0.61    c0.419-1.31,0.9-2.647,1.43-3.977l1.858,0.739C43.688,27.854,43.222,29.148,42.816,30.415z"/></g><g><path d="M45.841,22.791l-1.809-0.854c0.284-0.602,0.58-1.209,0.888-1.821l1.786,0.9C46.406,21.613,46.118,22.205,45.841,22.791z"/></g></g><g><path d="M59.049,80.008c-0.071,0-0.143-0.008-0.214-0.023l-8.6-1.888c-0.54-0.118-0.881-0.651-0.762-1.191s0.656-0.879,1.191-0.762   l7.02,1.541l-1.407-5.582c-0.135-0.536,0.19-1.079,0.725-1.214c0.535-0.134,1.08,0.19,1.214,0.725l1.803,7.15   c0.084,0.336-0.011,0.692-0.252,0.941C59.576,79.901,59.316,80.008,59.049,80.008z"/></g><text x="0" y="115" fill="#000000" font-size="5px" font-weight="bold" font-family="'Helvetica Neue', Helvetica, Arial-Unicode, Arial, Sans-serif">Created by IconTrack</text><text x="0" y="120" fill="#000000" font-size="5px" font-weight="bold" font-family="'Helvetica Neue', Helvetica, Arial-Unicode, Arial, Sans-serif">from the Noun Project</text></svg>